# xmcd
#
# Track frame offsets:
#	150
#	14450
#	26933
#	40574
#	59375
#	70972
#	82817
#	94670
#	108599
#	123001
#	138037
#	151343
#	162930
#	175559
#	187616
#	200612
#	213218
#	226892
#	241362
#	255888
#	269263
#	281574
#	293445
#	307401
#	320218
#
# Disc length: 4432 seconds
#
# Revision: 1
# Processed by: cddbd v1.5.2PL0 Copyright (c) Steve Scherf et al.
# Submitted via: audiograbber 1.83.01
#
DISCID=4e114e19
DTITLE=John Lee Hooker - Boogie Chillen
DYEAR=1965
DGENRE=Blues
TTITLE0=Boogie chillen
TTITLE1=Im in the moood
TTITLE2=Hobo blues
TTITLE3=I feel so good
TTITLE4=Walkin the boogie
TTITLE5=Howlin wolf
TTITLE6=Boogie awhile
TTITLE7=Highway blues
TTITLE8=Sally Mae
TTITLE9=Ramblin by myself
TTITLE10=Union station blues
TTITLE11=Queen Bee
TTITLE12=Weeping willow boogie
TTITLE13=Find me a woman
TTITLE14=Henrys swing club
TTITLE15=Leave my wife alone
TTITLE16=Tease me baby
TTITLE17=Don't go baby
TTITLE18=Sugar mama
TTITLE19=Ground hog blues
TTITLE20=High priced woman
TTITLE21=Let your daddy ride
TTITLE22=My baby shes long and tall
TTITLE23=Long long way from home
TTITLE24=Crawlin king snake
EXTD=Australian compilation 2007
EXTT0=
EXTT1=
EXTT2=
EXTT3=
EXTT4=
EXTT5=
EXTT6=
EXTT7=
EXTT8=
EXTT9=
EXTT10=
EXTT11=
EXTT12=
EXTT13=
EXTT14=
EXTT15=
EXTT16=
EXTT17=
EXTT18=
EXTT19=
EXTT20=
EXTT21=
EXTT22=
EXTT23=
EXTT24=
PLAYORDER=
